<?xml version="1.0" encoding="UTF-8"?> <svg xmlns="http://www.w3.org/2000/svg" xmlns:xlink="http://www.w3.org/1999/xlink" width="76" height="60" viewBox="0 0 76 60"><defs><path id="a" d="M384.691 311.613h-15.779v11.375h-19.815v12.11H330.75v5.784"></path><path id="b" d="M336.97 287.871c0 2.183-1.725 3.952-3.853 3.952s-3.853-1.769-3.853-3.952 1.725-3.952 3.853-3.952 3.853 1.77 3.853 3.952z"></path><path id="c" d="M377.283 303.758l8.21 7.662-7.116 7.662"></path><path id="d" d="M332.106 293.766c2.332.982 4.417 4.54 4.417 4.54l2.085 2.823 6.26-4.908s1.288-1.044 2.577.245c1.288 1.288 1.349 2.699.49 3.436-.859.736-7.73 6.749-7.73 6.749s-3.191 1.227-5.154-.737l-1.964-1.963-3.803 6.872 9.279 4.497 3.237 12.56s1.227 2.699-1.472 3.558c-2.7.859-3.682-1.963-3.682-1.963l-2.991-10.72-12.47-6.705s-2.332-4.295-.491-7.485c1.84-3.191 3.313-5.89 3.313-5.89l-3.56-.123-4.049 5.399s-1.35 2.209-3.19 1.105c-1.84-1.105-.369-4.541-.369-4.541l5.154-7.976 14.112 1.227z"></path><path id="e" d="M321.46 313.062l4.51 2.462-8.478 18.813s-.957 2.121-3.352.822c-2.663-1.446-1.368-3.284-1.368-3.284l8.688-18.813z"></path></defs><use fill="#fff" fill-opacity="0" stroke="#f53a66" stroke-linecap="round" stroke-linejoin="round" stroke-miterlimit="50" stroke-width="2.12" xlink:href="#a" transform="translate(-311 -282)"></use><use fill="#fff" fill-opacity="0" stroke="#1a1a1a" stroke-linecap="round" stroke-linejoin="round" stroke-miterlimit="50" stroke-width="2.12" xlink:href="#b" transform="translate(-311 -282)"></use><use fill="#fff" fill-opacity="0" stroke="#f53a66" stroke-linecap="round" stroke-linejoin="round" stroke-miterlimit="50" stroke-width="2.12" xlink:href="#c" transform="translate(-311 -282)"></use><use fill="#fff" fill-opacity="0" stroke="#1a1a1a" stroke-linecap="round" stroke-linejoin="round" stroke-miterlimit="50" stroke-width="2.12" xlink:href="#d" transform="translate(-311 -282)"></use><use fill="#fff" fill-opacity="0" stroke="#1a1a1a" stroke-linecap="round" stroke-linejoin="round" stroke-miterlimit="50" stroke-width="2.12" xlink:href="#e" transform="translate(-311 -282)"></use></svg> 